<?xml version="1.0" standalone="no"?>
<!DOCTYPE svg PUBLIC "-//W3C//DTD SVG 20010904//EN"
 "http://www.w3.org/TR/2001/REC-SVG-20010904/DTD/svg10.dtd">
<svg version="1.0" xmlns="http://www.w3.org/2000/svg"
 width="317.000000pt" height="317.000000pt" viewBox="0 0 317.000000 317.000000"
 preserveAspectRatio="xMidYMid meet">
<metadata>
Created by potrace 1.11, written by Peter Selinger 2001-2013
</metadata>
<g transform="translate(0.000000,317.000000) scale(0.100000,-0.100000)"
fill="#000000" stroke="none">
<path d="M242 3024 c-5 -11 -11 -66 -12 -124 -3 -145 -7 -242 -14 -400 -12
-254 -15 -325 -21 -480 -3 -85 -8 -198 -10 -250 -2 -52 -7 -167 -11 -255 -3
-88 -8 -191 -9 -230 -19 -428 -24 -765 -13 -833 10 -61 41 -124 74 -155 32
-30 110 -60 128 -50 7 5 7 2 -1 -8 -10 -12 -9 -15 6 -15 13 0 17 6 14 21 -3
12 -2 16 4 9 5 -8 36 -11 81 -10 53 1 72 -1 72 -11 0 -7 5 -13 11 -13 5 0 7 5
4 10 -13 22 7 31 28 13 11 -10 18 -13 15 -8 -8 13 211 13 231 1 10 -7 12 -5 6
4 -6 10 -4 12 8 7 11 -4 14 -2 10 9 -3 10 0 12 10 8 10 -3 18 2 22 15 3 12 11
21 16 21 6 0 7 5 4 10 -3 6 -2 10 3 10 8 0 16 28 29 105 1 11 4 46 5 78 1 31
6 57 11 57 4 0 5 5 2 11 -12 19 -13 60 -1 56 6 -2 10 -13 10 -25 -1 -12 3 -19
7 -16 5 3 6 10 3 16 -5 7 -2 9 8 6 8 -4 15 -1 15 7 0 7 -6 11 -12 9 -23 -9
-38 26 -36 85 3 86 -4 91 -152 92 -67 1 -128 1 -135 0 -9 -1 -11 7 -7 29 3 16
1 30 -4 30 -4 0 -8 -8 -8 -17 0 -38 -4 -40 -56 -40 -52 1 -53 1 -52 31 0 18 7
34 15 38 12 5 11 7 -3 7 -10 1 -16 5 -13 9 3 5 6 38 7 73 1 35 7 70 13 78 9
12 8 13 -4 6 -13 -8 -13 -7 0 10 9 11 10 16 3 11 -8 -4 -13 -1 -13 9 0 10 5
13 13 9 9 -6 9 -5 0 7 -14 18 -14 30 0 48 8 10 8 13 1 8 -7 -4 -10 3 -7 21 2
15 5 78 6 140 2 95 4 111 17 107 12 -5 11 -2 -2 11 -16 16 -16 18 0 31 9 8 11
12 5 8 -18 -9 -18 116 0 134 10 11 9 13 -1 7 -6 -4 -12 -2 -12 3 0 6 6 11 13
11 8 0 8 3 2 8 -6 4 -10 32 -8 62 1 30 4 96 6 146 2 50 7 97 12 104 5 9 4 11
-3 6 -7 -4 -12 -3 -12 3 0 5 6 12 13 14 9 4 8 8 -3 16 -8 6 -10 11 -4 11 7 0
9 11 6 25 -2 14 2 33 9 42 10 12 10 14 2 9 -8 -4 -13 -2 -13 8 0 9 7 13 19 11
23 -4 23 27 0 33 -12 3 -12 2 0 -6 9 -7 10 -12 2 -16 -20 -13 -26 51 -8 81 4
6 3 15 -3 18 -8 5 -7 11 1 21 9 11 9 14 0 14 -7 0 -9 5 -5 12 4 6 7 31 7 55
-1 23 3 41 7 38 4 -3 14 3 21 13 13 15 12 16 -3 3 -10 -7 -18 -12 -19 -10 -1
2 -2 34 -3 72 -1 45 3 66 10 63 6 -2 11 2 11 10 0 7 -4 11 -9 8 -4 -3 -8 11
-8 30 0 22 5 36 13 36 8 0 8 3 2 8 -16 11 -18 65 -2 56 8 -5 7 -2 -2 9 -14 18
-2 24 15 7 6 -6 10 -3 10 9 0 13 -6 17 -21 14 -16 -4 -17 -3 -5 6 12 8 12 11
1 11 -11 0 -11 3 0 17 9 11 10 14 2 9 -9 -5 -11 -2 -7 9 5 12 9 13 20 4 12
-10 13 -9 8 5 -3 9 -14 16 -23 16 -13 0 -13 2 -2 9 11 7 11 9 0 13 -12 5 -12
9 -1 28 8 12 9 19 4 16 -5 -3 -12 7 -14 24 -2 16 -1 27 4 24 12 -8 10 3 -4 18
-7 7 -20 33 -29 58 -11 32 -28 54 -56 74 -38 26 -51 29 -146 33 -95 5 -106 4
-115 -13z"/>
<path d="M1207 3028 c-17 -13 -19 -35 -23 -228 -2 -118 -6 -267 -9 -330 -3
-63 -8 -167 -10 -230 -3 -63 -7 -155 -10 -205 -4 -95 -10 -215 -30 -705 -26
-639 -26 -856 -1 -930 21 -61 61 -120 81 -120 7 0 15 -4 17 -10 2 -5 14 -11
28 -14 14 -2 25 -5 25 -6 0 -9 65 -8 70 0 5 8 14 6 28 -7 11 -10 18 -13 14 -7
-7 12 41 12 61 0 7 -4 12 -4 11 1 -4 23 2 35 17 29 10 -4 13 -2 7 7 -12 20
-12 37 0 37 8 0 8 3 2 8 -14 10 -16 64 -2 55 6 -4 7 -1 2 8 -13 20 -13 49 -1
49 6 0 4 5 -4 10 -13 9 -13 10 0 10 9 0 11 3 5 8 -14 9 -14 132 0 132 5 0 4 4
-4 9 -8 6 -10 14 -5 22 11 18 14 38 6 43 -4 2 -6 37 -5 78 2 40 3 152 4 248 0
172 6 204 34 194 7 -3 15 -1 19 4 6 10 -24 10 -40 -1 -7 -4 -12 3 -11 18 0 14
5 25 11 25 6 0 4 5 -4 11 -11 8 -12 12 -2 16 6 2 12 9 12 14 0 6 -4 8 -9 4
-16 -9 -9 38 8 58 13 15 13 17 0 12 -11 -4 -15 2 -14 25 0 17 5 28 11 26 6 -2
11 2 11 10 0 7 -4 11 -8 8 -4 -2 -10 0 -14 6 -3 5 -1 10 6 10 10 0 10 3 2 11
-8 8 -8 20 -3 35 5 13 6 24 1 24 -4 0 -7 12 -5 28 2 15 5 119 5 231 1 177 3
202 15 186 8 -10 14 -14 14 -8 0 6 -6 15 -13 21 -13 11 -17 135 -4 148 4 4 7
2 7 -5 0 -7 5 -9 10 -6 6 4 10 -10 10 -35 0 -23 5 -50 10 -61 8 -14 7 -19 -2
-19 -9 0 -9 -3 2 -10 12 -8 12 -10 1 -10 -10 0 -11 -3 -2 -13 14 -18 20 -127
8 -152 -9 -17 -8 -18 5 -7 13 10 15 7 13 -25 -1 -21 2 -43 7 -50 6 -7 5 -14
-2 -18 -8 -5 -6 -14 7 -28 l18 -21 -28 17 c-27 18 -28 18 -15 -3 7 -11 16 -20
21 -20 4 0 5 -4 2 -10 -3 -5 -2 -10 3 -10 5 0 8 -12 6 -27 -1 -15 2 -33 7 -39
6 -8 4 -14 -8 -19 -16 -6 -16 -7 -2 -15 10 -6 15 -20 13 -37 -1 -15 0 -32 4
-38 12 -19 11 -37 -3 -31 -8 3 -17 0 -21 -6 -5 -7 -2 -8 6 -3 10 6 12 4 7 -8
-4 -12 -2 -14 11 -10 15 6 16 5 2 -12 -11 -14 -11 -17 -1 -11 10 7 12 3 6 -14
-4 -12 -3 -20 2 -17 4 3 8 -9 8 -26 0 -19 -6 -35 -15 -39 -10 -4 -7 -7 10 -7
20 -1 22 -3 10 -11 -13 -9 -13 -10 0 -10 13 0 13 -1 0 -10 -8 -5 -10 -10 -4
-10 6 0 11 -6 11 -12 0 -12 9 -79 18 -138 2 -14 6 -52 10 -85 3 -33 8 -73 10
-90 2 -16 7 -52 10 -80 3 -27 10 -81 16 -120 5 -38 12 -92 15 -120 3 -27 7
-57 10 -65 3 -8 8 -33 11 -55 2 -22 15 -60 27 -85 23 -46 100 -115 117 -104 5
3 9 0 9 -6 0 -6 5 -8 10 -5 6 3 10 2 10 -3 0 -6 7 -13 16 -16 8 -3 12 -2 9 3
-6 11 35 8 54 -4 9 -5 12 -4 7 3 -4 7 2 9 20 6 14 -3 23 -1 20 4 -2 4 4 9 15
9 11 1 17 -2 14 -7 -3 -5 -1 -11 4 -14 5 -4 8 2 6 11 -1 10 6 32 16 49 10 17
16 34 12 37 -3 4 -2 12 4 19 8 11 13 39 16 96 0 6 4 12 8 12 5 0 7 14 5 30 -2
20 1 29 8 27 6 -2 10 -12 10 -21 -2 -13 1 -14 12 -5 12 10 12 13 -3 24 -19 14
-27 45 -11 45 6 0 7 7 4 16 -4 10 -2 13 7 8 9 -5 9 -4 0 6 -14 15 -5 43 11 33
6 -4 4 2 -4 12 -14 17 -13 18 4 11 19 -7 19 -6 2 13 -13 14 -14 21 -5 27 8 5
10 3 4 -6 -5 -9 -4 -11 3 -6 8 5 8 15 1 32 -7 21 -6 25 4 21 10 -3 13 6 13 37
-1 28 3 40 12 38 6 -1 12 2 12 8 0 5 -5 10 -10 10 -11 0 -9 32 4 62 4 9 5 22
1 28 -3 5 2 10 12 10 10 0 14 3 8 8 -6 4 -11 12 -10 19 0 16 15 29 15 13 0 -9
4 -9 13 -3 6 6 20 9 30 7 11 -1 16 1 12 4 -4 4 -19 7 -33 7 -29 0 -28 -2 -20
82 3 30 5 32 33 27 16 -3 27 -2 23 1 -3 4 -14 8 -25 9 -22 4 -24 26 -3 44 9 8
10 11 1 6 -10 -5 -12 2 -6 37 4 24 7 52 7 61 -1 10 3 20 8 23 5 3 7 12 3 20
-3 8 -1 15 4 15 5 0 9 10 10 23 1 54 4 68 11 63 5 -3 9 1 9 9 0 8 -5 11 -10 8
-7 -4 -7 1 -2 13 4 10 8 29 8 42 1 12 4 22 7 22 4 0 6 16 5 35 -1 19 1 32 5
30 4 -3 8 10 9 28 1 61 2 67 13 73 6 4 5 10 -3 15 -8 5 -9 9 -3 9 6 0 10 11 9
25 -2 14 1 25 6 25 4 0 5 7 2 17 -5 12 -3 14 8 8 12 -7 12 -6 1 7 -9 12 -10
22 -4 35 5 10 7 24 5 31 -3 6 -1 12 4 12 4 0 9 12 9 28 4 63 9 82 24 83 10 0
11 2 3 6 -7 2 -13 12 -13 20 0 13 2 14 18 2 16 -13 16 -13 2 5 -18 23 -14 65
8 84 10 7 11 11 5 7 -14 -6 -19 36 -7 48 7 7 15 59 15 94 -1 12 3 24 8 27 5 3
8 -39 7 -94 0 -55 -4 -100 -8 -100 -3 0 -5 -8 -3 -17 1 -10 -3 -24 -9 -32 -7
-10 -8 -13 0 -8 7 4 11 -6 12 -29 1 -22 -2 -32 -9 -28 -8 4 -8 0 -2 -12 5 -11
8 -30 7 -44 -5 -63 -15 -273 -17 -347 -1 -46 -4 -83 -6 -83 -3 0 -12 7 -21 15
-14 13 -17 13 -17 0 0 -8 5 -11 10 -8 6 4 8 0 4 -9 -4 -12 0 -15 16 -12 12 2
17 2 11 -1 -7 -3 -9 -15 -7 -27 4 -11 0 -24 -8 -29 -10 -6 -10 -9 -2 -9 18 0
9 -120 -9 -131 -10 -7 -8 -9 6 -9 13 0 16 -4 10 -12 -5 -7 -9 -26 -8 -41 1
-19 -3 -26 -12 -23 -8 3 -11 0 -7 -9 3 -8 8 -13 13 -10 4 2 7 -9 6 -24 -1 -26
-4 -29 -29 -26 -22 3 -26 1 -18 -9 6 -7 8 -16 4 -19 -3 -4 -1 -7 6 -7 8 0 11
7 7 15 -6 17 2 19 23 6 9 -6 10 -11 3 -15 -6 -4 -9 -13 -5 -21 3 -9 -1 -15 -8
-15 -9 0 -10 -3 -4 -8 14 -9 14 -75 1 -85 -8 -5 -7 -10 3 -16 7 -5 11 -13 8
-18 -4 -6 -9 -95 -11 -199 -5 -186 1 -247 32 -324 27 -67 103 -113 194 -116
31 -1 62 -5 69 -10 7 -4 10 -3 5 4 -3 6 -1 14 5 18 7 4 9 3 5 -4 -4 -7 2 -10
16 -10 32 2 48 16 41 36 -5 14 -2 14 17 -3 l23 -20 -14 23 c-8 12 -17 22 -22
22 -4 0 -5 5 -2 10 4 6 7 31 7 55 0 25 3 43 7 41 4 -3 8 1 8 9 0 8 -4 12 -9 9
-4 -3 -8 2 -8 11 0 10 5 13 13 9 7 -5 6 0 -3 11 -9 11 -10 16 -2 11 6 -4 12
-2 12 3 0 6 -5 11 -12 11 -6 0 -3 9 7 20 13 14 14 19 4 15 -11 -4 -14 4 -14
34 0 21 2 38 6 36 3 -2 4 25 3 61 -1 35 3 67 7 70 5 3 9 11 9 17 0 7 -4 6 -10
-3 -6 -10 -7 7 -4 50 4 36 11 71 18 79 8 11 8 13 -1 8 -9 -6 -11 19 -7 100 3
60 4 121 4 136 0 20 3 26 12 21 10 -6 11 -4 1 7 -14 14 -18 43 -5 35 4 -2 8 4
8 14 0 10 -4 16 -8 14 -4 -3 -8 1 -8 10 0 22 11 46 19 42 4 -3 7 5 8 17 0 12
-1 16 -4 10 -3 -7 -9 -13 -14 -13 -6 0 -7 4 -4 10 3 5 6 37 6 70 0 33 5 60 10
60 5 0 9 5 9 11 0 5 -4 8 -8 5 -5 -3 -8 24 -8 59 1 36 4 65 8 65 5 0 8 5 8 11
0 5 -6 7 -12 3 -10 -6 -10 -4 0 8 7 9 9 19 4 22 -5 3 -7 18 -4 35 3 22 9 29
23 26 10 -2 21 0 24 4 2 5 -5 8 -18 7 -21 -1 -22 3 -22 69 -1 77 3 94 16 74 7
-11 9 -11 9 -1 0 8 5 10 13 6 6 -4 9 -4 5 1 -4 4 -2 15 4 24 11 14 10 14 -7 0
-30 -24 -51 -12 -23 13 13 11 18 17 13 14 -6 -2 -17 -1 -25 5 -8 5 -10 9 -5 9
6 0 10 41 9 105 -1 58 3 108 7 111 5 3 9 10 9 15 0 6 -4 8 -8 5 -16 -9 1 59
17 72 14 11 14 11 -2 6 -15 -6 -17 1 -15 69 2 41 5 74 8 72 3 -2 5 7 5 20 0
13 -3 21 -7 18 -5 -2 -8 1 -8 6 0 6 8 11 18 11 15 1 15 2 1 10 -11 6 -15 18
-12 35 3 15 10 22 17 18 6 -3 2 3 -8 15 -11 13 -14 22 -7 22 8 0 9 5 1 19 -5
11 -6 22 -1 25 4 3 6 18 3 33 -4 23 -2 26 9 16 16 -16 29 -17 29 -2 0 5 -4 8
-9 5 -19 -12 -28 23 -31 119 -4 164 -5 173 -12 168 -5 -2 -8 3 -8 12 0 40 -56
122 -100 146 -27 15 -371 27 -434 15 -31 -6 -35 -11 -45 -54 -6 -26 -13 -63
-15 -82 -6 -50 -17 -131 -21 -160 -2 -14 -9 -59 -15 -100 -12 -87 -18 -129
-25 -186 -3 -23 -8 -52 -10 -64 -2 -12 -7 -49 -10 -83 -4 -34 -9 -65 -11 -69
-2 -4 -6 -30 -9 -59 -2 -28 -7 -59 -9 -68 -3 -9 -8 -36 -11 -61 -3 -25 -10
-70 -15 -100 -5 -30 -12 -77 -15 -105 -3 -27 -8 -57 -10 -65 -2 -8 -7 -37 -10
-65 -8 -74 -13 -95 -27 -113 -9 -10 -9 -13 -1 -9 11 7 11 3 0 -57 -1 -6 -9
-17 -17 -24 -8 -8 -9 -11 -2 -7 16 8 16 -7 0 -24 -10 -11 -10 -13 0 -7 6 4 12
2 12 -3 0 -6 -4 -11 -10 -11 -5 0 -10 -5 -10 -11 0 -5 4 -7 10 -4 6 3 7 -1 4
-9 -3 -9 -11 -13 -16 -10 -7 5 -7 1 -1 -11 13 -22 4 -67 -11 -58 -6 4 -4 -1 4
-12 14 -17 13 -17 -10 -11 -25 6 -25 6 -2 -5 23 -13 28 -24 13 -33 -5 -3 -8
-19 -7 -36 2 -21 -2 -30 -13 -31 -11 0 -12 -2 -3 -6 6 -2 12 -9 12 -14 0 -6
-6 -7 -12 -3 -10 5 -10 4 -1 -6 8 -9 9 -20 2 -38 -6 -15 -9 -40 -8 -57 2 -16
-1 -32 -6 -35 -5 -3 -10 11 -10 30 -1 20 -5 42 -10 50 -6 10 -4 12 10 6 18 -6
18 -6 3 11 -12 13 -14 23 -7 36 7 11 7 17 -1 17 -12 0 -9 22 5 32 6 5 5 8 -3
8 -7 0 -10 5 -7 10 3 6 2 10 -3 10 -5 0 -9 7 -9 15 0 8 5 15 11 15 6 0 5 4 -3
9 -7 5 -10 14 -7 20 4 6 12 8 18 5 7 -4 8 -2 4 5 -4 6 -12 9 -17 6 -5 -4 -9 3
-9 14 0 10 6 22 13 24 7 3 5 6 -5 6 -20 1 -25 21 -6 21 9 0 9 3 0 12 -13 13
-16 32 -4 24 4 -2 14 0 22 5 13 8 12 9 -2 7 -9 -2 -17 2 -17 7 -1 6 3 10 8 10
5 0 13 3 16 7 4 4 -5 5 -20 2 -22 -4 -26 -2 -18 8 6 8 7 21 2 33 -12 31 -11
34 11 30 11 -2 20 1 20 6 0 5 -8 9 -17 7 -14 -2 -19 6 -23 37 -3 22 -2 48 3
59 7 13 6 16 -3 11 -8 -5 -11 0 -8 15 2 13 11 24 21 26 12 1 17 -2 14 -10 -3
-7 1 -13 9 -13 7 0 11 4 8 9 -3 5 0 16 8 25 11 14 11 16 -2 8 -23 -14 -58 -13
-64 1 -3 7 -1 16 5 19 5 4 6 12 2 18 -11 18 -13 57 -2 57 5 0 9 5 9 11 0 5 -4
8 -9 5 -5 -3 -11 10 -13 29 -4 31 -2 34 17 29 19 -6 19 -5 2 8 -20 15 -41 98
-25 98 5 0 7 4 3 9 -3 6 3 15 12 21 16 10 16 11 1 6 -20 -6 -34 10 -16 17 10
4 9 6 -1 6 -11 1 -11 4 0 18 12 14 12 16 0 9 -11 -7 -13 0 -9 33 2 22 1 41 -3
41 -3 0 -5 11 -3 25 1 14 -2 39 -6 56 -8 27 -7 29 11 24 11 -4 19 -2 19 4 0 6
-3 10 -7 10 -21 -3 -29 3 -31 27 -1 18 2 23 11 18 9 -6 9 -4 -1 8 -7 8 -14 39
-16 67 -2 29 -7 55 -10 58 -3 3 0 13 7 21 10 13 9 14 -3 7 -9 -5 -7 1 5 16 13
15 14 19 4 11 -15 -11 -17 -8 -21 33 -2 30 1 44 8 41 6 -2 11 2 11 9 0 7 -6
11 -13 8 -6 -2 -15 1 -20 8 -5 8 -3 10 6 4 10 -6 11 -4 4 6 -5 8 -10 25 -12
39 -2 13 -9 31 -15 39 -9 11 -9 13 0 8 6 -4 14 -3 18 3 3 5 -1 10 -9 10 -9 0
-13 7 -11 20 2 11 -1 20 -7 20 -7 0 -7 4 1 14 6 7 22 12 36 10 14 -1 23 1 20
5 -5 9 -36 8 -52 -2 -6 -4 -13 0 -17 8 -3 8 0 17 6 21 7 5 5 11 -6 20 -10 7
-27 30 -39 52 -65 116 -87 126 -312 130 -141 3 -184 0 -198 -10z m1240 -750
c-3 -8 -6 -5 -6 6 -1 11 2 17 5 13 3 -3 4 -12 1 -19z m-934 -73 c3 -33 6 -60
7 -60 1 0 3 -8 5 -17 4 -20 -3 -22 -25 -8 -13 9 -13 10 0 10 12 0 12 2 1 9
-10 7 -11 13 -2 30 7 11 8 21 4 21 -5 0 -7 18 -5 41 5 53 9 46 15 -26z"/>
<path d="M2874 2836 c1 -8 5 -18 8 -22 4 -3 5 1 4 10 -1 8 -5 18 -8 22 -4 3
-5 -1 -4 -10z"/>
<path d="M2868 2793 c10 -4 10 -8 0 -21 -9 -12 -5 -11 12 3 14 11 26 20 28 21
2 1 -10 1 -25 1 -15 0 -22 -2 -15 -4z"/>
<path d="M610 2780 c-9 -6 -10 -10 -3 -10 6 0 15 5 18 10 8 12 4 12 -15 0z"/>
<path d="M656 2764 c-3 -9 1 -11 11 -7 10 4 14 2 10 -4 -8 -13 18 -11 30 1 4
4 1 6 -7 4 -8 -1 -14 2 -13 8 3 15 -25 13 -31 -2z"/>
<path d="M697 2705 c-4 -8 -3 -16 1 -19 4 -3 9 4 9 15 2 23 -3 25 -10 4z"/>
<path d="M2933 2699 c-2 -23 3 -25 10 -4 4 8 3 16 -1 19 -4 3 -9 -4 -9 -15z"/>
<path d="M624 2689 c-5 -8 -3 -9 6 -4 7 4 16 2 22 -6 8 -12 9 -12 6 0 -6 20
-24 25 -34 10z"/>
<path d="M1853 2685 c0 -8 4 -12 9 -9 5 3 6 10 3 15 -9 13 -12 11 -12 -6z"/>
<path d="M2845 2690 c-2 -3 9 -6 25 -5 15 0 26 3 24 7 -5 8 -44 6 -49 -2z"/>
<path d="M1876 2657 c3 -10 9 -15 12 -12 3 3 0 11 -7 18 -10 9 -11 8 -5 -6z"/>
<path d="M2930 2661 c0 -7 -4 -10 -9 -7 -5 4 -8 -2 -7 -11 2 -9 8 -18 15 -19
7 -2 7 0 1 3 -8 3 -7 9 1 19 7 8 9 17 5 21 -3 3 -6 1 -6 -6z"/>
<path d="M676 2649 c4 -8 30 -6 38 2 3 3 -5 5 -19 5 -13 0 -22 -3 -19 -7z"/>
<path d="M2851 2614 c0 -11 3 -14 6 -6 3 7 2 16 -1 19 -3 4 -6 -2 -5 -13z"/>
<path d="M634 2594 c7 -38 14 -40 12 -5 0 17 -4 31 -9 31 -4 0 -5 -12 -3 -26z"/>
<path d="M2876 2588 c3 -5 10 -6 15 -3 13 9 11 12 -6 12 -8 0 -12 -4 -9 -9z"/>
<path d="M678 2583 c7 -3 16 -2 19 1 4 3 -2 6 -13 5 -11 0 -14 -3 -6 -6z"/>
<path d="M1880 2576 c0 -2 8 -10 18 -17 15 -13 16 -12 3 4 -13 16 -21 21 -21
13z"/>
<path d="M2892 2571 c-11 -7 -11 -9 0 -14 9 -3 15 1 15 9 0 8 -1 14 -1 14 -1
0 -7 -4 -14 -9z"/>
<path d="M708 2553 c7 -3 16 -2 19 1 4 3 -2 6 -13 5 -11 0 -14 -3 -6 -6z"/>
<path d="M674 2528 c-4 -7 -4 -10 1 -6 4 4 15 2 24 -5 14 -11 14 -10 2 6 -16
20 -18 21 -27 5z"/>
<path d="M1870 2530 c0 -5 5 -10 10 -10 6 0 10 5 10 10 0 6 -4 10 -10 10 -5 0
-10 -4 -10 -10z"/>
<path d="M2900 2536 c0 -2 8 -10 18 -17 15 -13 16 -12 3 4 -13 16 -21 21 -21
13z"/>
<path d="M1907 2509 c7 -7 15 -10 18 -7 3 3 -2 9 -12 12 -14 6 -15 5 -6 -5z"/>
<path d="M2946 2508 c3 -5 10 -6 15 -3 13 9 11 12 -6 12 -8 0 -12 -4 -9 -9z"/>
<path d="M668 2503 c7 -3 16 -2 19 1 4 3 -2 6 -13 5 -11 0 -14 -3 -6 -6z"/>
<path d="M2895 2500 c-4 -6 -11 -8 -16 -5 -15 10 -10 -12 6 -25 13 -11 14 -10
9 5 -5 11 -4 16 3 12 5 -3 10 0 10 8 0 18 -3 19 -12 5z"/>
<path d="M1910 2486 c0 -2 8 -10 18 -17 15 -13 16 -12 3 4 -13 16 -21 21 -21
13z"/>
<path d="M628 2473 c10 -4 10 -8 0 -21 -7 -10 -9 -14 -4 -10 5 4 16 3 26 -2
12 -6 17 -5 17 5 0 8 -7 11 -16 7 -13 -5 -14 -3 -4 9 10 12 8 15 -10 16 -12 0
-16 -1 -9 -4z"/>
<path d="M710 2469 c0 -5 5 -7 10 -4 6 3 10 8 10 11 0 2 -4 4 -10 4 -5 0 -10
-5 -10 -11z"/>
<path d="M1891 2454 c0 -11 3 -14 6 -6 3 7 2 16 -1 19 -3 4 -6 -2 -5 -13z"/>
<path d="M1837 2445 c-4 -8 -3 -16 1 -19 4 -3 9 4 9 15 2 23 -3 25 -10 4z"/>
<path d="M2917 2448 c-7 -5 0 -6 17 -4 16 3 31 7 33 10 8 8 -37 2 -50 -6z"/>
<path d="M2853 2415 c0 -8 5 -11 10 -8 7 4 8 -1 3 -12 -5 -15 -4 -16 9 -5 9 7
14 13 13 14 -2 1 -10 7 -19 14 -13 9 -16 9 -16 -3z"/>
<path d="M1875 2410 c-3 -5 3 -7 12 -5 10 1 25 -4 35 -12 13 -12 17 -12 24 -1
4 7 4 10 -1 6 -4 -4 -15 -2 -23 4 -18 15 -40 19 -47 8z"/>
<path d="M705 2390 c-3 -6 1 -7 9 -4 18 7 21 14 7 14 -6 0 -13 -4 -16 -10z"/>
<path d="M1851 2374 c0 -11 3 -14 6 -6 3 7 2 16 -1 19 -3 4 -6 -2 -5 -13z"/>
<path d="M1877 2383 c-10 -21 -1 -77 13 -80 9 -3 11 -1 4 4 -5 4 -10 25 -9 46
1 37 0 44 -8 30z"/>
<path d="M2901 2374 c0 -11 3 -14 6 -6 3 7 2 16 -1 19 -3 4 -6 -2 -5 -13z"/>
<path d="M2930 2386 c0 -2 7 -9 15 -16 9 -7 15 -8 15 -2 0 5 -7 12 -15 16 -8
3 -15 4 -15 2z"/>
<path d="M641 2339 c12 -24 26 -31 26 -14 0 8 -5 11 -10 8 -6 -4 -8 0 -5 9 4
8 0 15 -7 15 -10 0 -11 -5 -4 -18z"/>
<path d="M1907 2328 c7 -8 11 -17 8 -20 -3 -3 5 -13 17 -24 l23 -19 -18 21
c-11 13 -14 23 -8 25 6 2 1 10 -11 18 -20 13 -22 12 -11 -1z"/>
<path d="M597 2306 c-3 -8 1 -22 9 -33 14 -17 15 -17 6 2 -5 11 -7 26 -5 33 6
17 -4 15 -10 -2z"/>
<path d="M2908 2313 c7 -3 16 -2 19 1 4 3 -2 6 -13 5 -11 0 -14 -3 -6 -6z"/>
<path d="M2853 2295 c0 -7 8 -10 19 -7 10 2 18 6 18 7 0 1 -8 5 -18 7 -11 3
-19 0 -19 -7z"/>
<path d="M2935 2299 c-4 -6 -5 -12 -2 -15 2 -3 7 2 10 11 7 17 1 20 -8 4z"/>
<path d="M1906 2265 c5 -11 4 -16 -3 -12 -5 3 -10 0 -10 -8 0 -12 3 -12 16 -3
9 7 17 13 19 14 1 1 -4 7 -13 14 -13 11 -14 10 -9 -5z"/>
<path d="M2865 2269 c-3 -4 2 -6 10 -5 21 3 28 13 10 13 -9 0 -18 -4 -20 -8z"/>
<path d="M691 2257 c-8 -10 -7 -14 2 -14 8 0 14 6 14 14 0 7 -1 13 -2 13 -2 0
-8 -6 -14 -13z"/>
<path d="M2930 2266 c0 -2 8 -10 18 -17 15 -13 16 -12 3 4 -13 16 -21 21 -21
13z"/>
<path d="M2836 2245 c-9 -26 -7 -32 5 -12 6 10 9 21 6 23 -2 3 -7 -2 -11 -11z"/>
<path d="M2914 2243 c2 -9 8 -18 15 -19 6 -1 7 0 1 3 -5 2 -8 9 -5 13 3 5 1
11 -4 14 -5 4 -8 -2 -7 -11z"/>
<path d="M626 2228 c3 -5 10 -6 15 -3 13 9 11 12 -6 12 -8 0 -12 -4 -9 -9z"/>
<path d="M666 2227 c3 -10 9 -15 12 -12 3 3 0 11 -7 18 -10 9 -11 8 -5 -6z"/>
<path d="M699 2228 c-5 -18 -6 -38 -1 -34 7 8 12 36 6 36 -2 0 -4 -1 -5 -2z"/>
<path d="M2873 2215 c0 -8 4 -12 9 -9 5 3 6 10 3 15 -9 13 -12 11 -12 -6z"/>
<path d="M613 2205 c0 -7 6 -11 14 -8 7 3 13 6 13 8 0 2 -6 5 -13 8 -8 3 -14
-1 -14 -8z"/>
<path d="M1924 2208 c-3 -4 5 -5 17 -3 30 6 36 14 9 12 -12 -1 -24 -5 -26 -9z"/>
<path d="M2907 2209 c7 -7 15 -10 18 -7 3 3 -2 9 -12 12 -14 6 -15 5 -6 -5z"/>
<path d="M2875 2190 c-16 -7 -17 -9 -3 -9 9 -1 20 4 23 9 7 11 7 11 -20 0z"/>
<path d="M677 2162 c-15 -16 -15 -18 1 -18 10 0 18 8 18 18 0 10 -1 18 -2 18
0 0 -8 -8 -17 -18z"/>
<path d="M1886 2172 c-3 -5 1 -9 9 -9 8 0 15 4 15 9 0 4 -4 8 -9 8 -6 0 -12
-4 -15 -8z"/>
<path d="M1959 2178 c-5 -18 -6 -38 -1 -34 7 8 12 36 6 36 -2 0 -4 -1 -5 -2z"/>
<path d="M2892 2171 c-11 -7 -11 -9 0 -14 9 -3 15 1 15 9 0 8 -1 14 -1 14 -1
0 -7 -4 -14 -9z"/>
<path d="M610 2132 c0 -5 7 -9 15 -9 8 0 12 4 9 9 -3 4 -9 8 -15 8 -5 0 -9 -4
-9 -8z"/>
<path d="M1919 2123 c-1 -5 -1 -12 0 -17 1 -5 -4 -6 -12 -3 -7 3 -14 -1 -14
-8 0 -8 7 -11 16 -7 14 5 14 4 1 -14 -11 -15 -11 -17 0 -6 8 7 15 23 16 37 1
23 -4 36 -7 18z"/>
<path d="M644 2109 c-3 -6 0 -17 8 -25 13 -13 15 -13 15 0 0 8 -5 12 -10 9 -6
-4 -8 0 -4 10 7 19 2 23 -9 6z"/>
<path d="M693 2089 c-2 -23 3 -25 10 -4 4 8 3 16 -1 19 -4 3 -9 -4 -9 -15z"/>
<path d="M2853 2095 c0 -7 6 -11 14 -8 7 3 13 6 13 8 0 2 -6 5 -13 8 -8 3 -14
-1 -14 -8z"/>
<path d="M2910 2093 c0 -6 8 -17 18 -24 16 -13 16 -13 2 6 -8 11 -16 22 -17
24 -2 2 -3 0 -3 -6z"/>
<path d="M1948 2068 c7 -9 10 -23 6 -32 -4 -10 -1 -16 7 -16 7 0 9 3 6 7 -4 3
-3 11 3 17 6 8 2 16 -13 26 -20 12 -21 11 -9 -2z"/>
<path d="M2865 2069 c-3 -4 2 -6 10 -5 21 3 28 13 10 13 -9 0 -18 -4 -20 -8z"/>
<path d="M2886 2051 c-19 -7 -19 -8 0 -13 13 -3 21 0 21 8 0 8 -1 14 -1 13 -1
0 -10 -4 -20 -8z"/>
<path d="M2824 2020 c0 -9 6 -17 13 -17 7 0 11 3 8 5 -3 3 -1 10 5 16 6 8 3
12 -8 12 -10 0 -18 -8 -18 -16z"/>
<path d="M1947 1997 c-3 -7 3 -13 14 -13 13 0 15 3 7 13 -6 7 -12 13 -13 13
-2 0 -5 -6 -8 -13z"/>
<path d="M666 1987 c3 -10 9 -15 12 -12 3 3 0 11 -7 18 -10 9 -11 8 -5 -6z"/>
<path d="M2821 1974 c0 -11 3 -14 6 -6 3 7 2 16 -1 19 -3 4 -6 -2 -5 -13z"/>
<path d="M693 1965 c0 -8 4 -12 9 -9 5 3 6 10 3 15 -9 13 -12 11 -12 -6z"/>
<path d="M1870 1969 c0 -5 5 -7 10 -4 6 3 10 8 10 11 0 2 -4 4 -10 4 -5 0 -10
-5 -10 -11z"/>
<path d="M2910 1970 c0 -5 5 -10 10 -10 6 0 10 5 10 10 0 6 -4 10 -10 10 -5 0
-10 -4 -10 -10z"/>
<path d="M1959 1958 c-6 -21 -5 -37 2 -32 5 3 7 9 4 14 -3 4 1 11 7 13 10 4
10 6 1 6 -7 1 -13 0 -14 -1z"/>
<path d="M613 1936 c0 -8 5 -12 10 -9 7 4 8 -1 3 -13 -6 -15 -5 -17 5 -6 11
10 10 15 -2 28 -14 13 -16 13 -16 0z"/>
<path d="M674 1933 c3 -4 1 -11 -4 -18 -7 -8 -5 -12 5 -12 7 0 13 5 12 11 -1
6 5 10 13 8 8 -2 11 0 7 4 -4 4 -15 9 -23 10 -9 1 -13 0 -10 -3z"/>
<path d="M1976 1923 c-6 -14 -5 -15 5 -6 7 7 10 15 7 18 -3 3 -9 -2 -12 -12z"/>
<path d="M2827 1929 c7 -7 15 -10 18 -7 3 3 -2 9 -12 12 -14 6 -15 5 -6 -5z"/>
<path d="M2933 1925 c0 -8 4 -12 9 -9 4 3 8 9 8 15 0 5 -4 9 -8 9 -5 0 -9 -7
-9 -15z"/>
<path d="M1523 1905 c-3 -9 -3 -18 -1 -21 3 -3 8 4 11 16 6 23 -1 27 -10 5z"/>
<path d="M2393 1896 c0 -7 6 -13 14 -13 7 0 13 4 13 8 0 4 -6 9 -13 12 -8 3
-14 0 -14 -7z"/>
<path d="M2900 1903 c0 -19 21 -27 33 -13 9 10 9 11 -2 5 -8 -4 -17 -2 -22 6
-6 9 -9 10 -9 2z"/>
<path d="M1912 1895 c4 -5 3 -13 -2 -20 -7 -8 -5 -12 5 -12 8 0 11 5 8 10 -4
6 0 8 10 4 25 -9 21 0 -5 14 -13 6 -20 8 -16 4z"/>
<path d="M571 1875 c1 -19 18 -51 18 -35 0 8 -4 22 -9 30 -5 8 -9 11 -9 5z"/>
<path d="M671 1864 c5 -6 7 -19 3 -28 -4 -10 -1 -16 7 -16 7 0 10 3 6 6 -3 3
-2 16 3 28 6 17 4 22 -11 22 -12 0 -15 -4 -8 -12z"/>
<path d="M1960 1856 c0 -2 8 -10 18 -17 15 -13 16 -12 3 4 -13 16 -21 21 -21
13z"/>
<path d="M2401 1846 c-9 -10 -9 -16 -1 -21 6 -4 14 -4 17 -1 4 3 1 6 -7 6 -10
0 -10 3 0 15 7 8 10 15 7 15 -2 0 -10 -6 -16 -14z"/>
<path d="M2870 1848 c0 -4 4 -8 9 -8 6 0 12 4 15 8 3 5 -1 9 -9 9 -8 0 -15 -4
-15 -9z"/>
<path d="M2913 1836 c0 -15 22 -15 34 0 4 5 4 6 -1 2 -5 -4 -14 -3 -21 2 -8 7
-12 5 -12 -4z"/>
<path d="M613 1815 c0 -7 6 -11 14 -8 7 3 13 6 13 8 0 2 -6 5 -13 8 -8 3 -14
-1 -14 -8z"/>
<path d="M1893 1803 c0 -7 3 -10 7 -8 3 2 19 6 34 9 42 8 41 13 -2 12 -23 -1
-39 -6 -39 -13z"/>
<path d="M669 1793 c-13 -16 -12 -17 4 -4 9 7 17 15 17 17 0 8 -8 3 -21 -13z"/>
<path d="M626 1792 c-3 -5 1 -9 9 -9 8 0 12 4 9 9 -3 4 -7 8 -9 8 -2 0 -6 -4
-9 -8z"/>
<path d="M1513 1793 c4 -3 1 -13 -6 -22 -11 -14 -10 -14 5 -2 16 12 16 31 1
31 -4 0 -3 -3 0 -7z"/>
<path d="M2379 1798 c-7 -23 -5 -37 4 -31 7 4 8 0 3 -12 -5 -15 -4 -16 9 -5
15 12 15 14 0 22 -8 5 -13 13 -10 19 4 5 4 9 1 9 -3 0 -6 -1 -7 -2z"/>
<path d="M596 1772 c-3 -5 1 -9 9 -9 8 0 12 4 9 9 -3 4 -7 8 -9 8 -2 0 -6 -4
-9 -8z"/>
<path d="M1956 1772 c-3 -5 1 -9 9 -9 8 0 12 4 9 9 -3 4 -7 8 -9 8 -2 0 -6 -4
-9 -8z"/>
<path d="M2835 1761 c-6 -11 13 -26 22 -17 4 3 1 6 -6 6 -7 0 -9 5 -6 10 3 6
4 10 1 10 -3 0 -7 -4 -11 -9z"/>
<path d="M2873 1755 c0 -8 4 -12 9 -9 5 3 6 10 3 15 -9 13 -12 11 -12 -6z"/>
<path d="M679 1758 c-6 -21 -5 -38 1 -38 5 0 8 9 7 20 -1 17 -5 26 -8 18z"/>
<path d="M570 1736 c0 -8 4 -17 9 -20 5 -4 7 3 4 14 -6 23 -13 26 -13 6z"/>
<path d="M595 1741 c-3 -5 -2 -12 3 -15 5 -3 9 1 9 9 0 17 -3 19 -12 6z"/>
<path d="M2887 1730 c-8 -11 -17 -17 -22 -12 -5 4 -5 1 -1 -6 4 -7 4 -19 -1
-25 -4 -7 -1 -5 8 5 9 9 20 14 23 10 4 -3 4 2 0 12 -5 12 -4 17 3 13 5 -3 10
0 10 8 0 20 -3 19 -20 -5z"/>
<path d="M630 1716 c0 -2 7 -7 16 -10 8 -3 12 -2 9 4 -6 10 -25 14 -25 6z"/>
<path d="M1960 1710 c-9 -6 -10 -10 -3 -10 6 0 15 5 18 10 8 12 4 12 -15 0z"/>
<path d="M2361 1706 c-9 -11 -9 -16 1 -22 7 -4 10 -4 6 1 -4 4 -3 14 3 22 6 7
9 13 6 13 -2 0 -10 -6 -16 -14z"/>
<path d="M595 1701 c-3 -5 -2 -12 3 -15 5 -3 9 1 9 9 0 17 -3 19 -12 6z"/>
<path d="M2910 1707 c0 -2 6 -10 14 -16 11 -9 16 -9 22 1 4 7 4 10 -1 6 -4 -4
-14 -3 -22 3 -7 6 -13 9 -13 6z"/>
<path d="M627 1689 c7 -7 15 -10 18 -7 3 3 -2 9 -12 12 -14 6 -15 5 -6 -5z"/>
<path d="M1513 1683 c0 -10 4 -10 16 -1 9 7 18 13 20 15 2 1 -5 1 -16 0 -11 0
-20 -7 -20 -14z"/>
<path d="M1993 1681 c0 -11 5 -18 9 -15 4 3 5 11 1 19 -7 21 -12 19 -10 -4z"/>
<path d="M674 1682 c3 -5 0 -13 -6 -15 -9 -4 -10 -6 -1 -6 17 -1 25 16 12 25
-7 4 -9 3 -5 -4z"/>
<path d="M1913 1674 c0 -8 10 -22 21 -31 21 -18 21 -18 3 3 -13 16 -15 23 -6
26 9 3 9 6 -2 10 -10 4 -16 1 -16 -8z"/>
<path d="M1950 1676 c0 -2 7 -7 16 -10 8 -3 12 -2 9 4 -6 10 -25 14 -25 6z"/>
<path d="M2876 1671 c-3 -5 2 -15 12 -22 15 -13 16 -12 4 3 -10 13 -10 17 0
21 9 4 9 6 1 6 -6 1 -14 -3 -17 -8z"/>
<path d="M628 1663 c7 -3 16 -2 19 1 4 3 -2 6 -13 5 -11 0 -14 -3 -6 -6z"/>
<path d="M564 1653 c4 -4 16 -8 28 -10 28 -4 18 6 -12 12 -12 2 -20 1 -16 -2z"/>
<path d="M2399 1658 c-6 -20 -6 -39 0 -42 4 -3 7 6 7 20 0 20 -4 32 -7 22z"/>
<path d="M2914 1634 c1 -13 5 -26 8 -29 4 -4 5 1 4 12 -2 10 0 23 5 29 5 6 4
11 -5 11 -7 0 -12 -10 -12 -23z"/>
<path d="M640 1630 c-9 -6 -10 -10 -3 -10 6 0 15 5 18 10 8 12 4 12 -15 0z"/>
<path d="M1970 1626 c0 -2 8 -10 18 -17 15 -13 16 -12 3 4 -13 16 -21 21 -21
13z"/>
<path d="M2358 1623 c7 -3 16 -2 19 1 4 3 -2 6 -13 5 -11 0 -14 -3 -6 -6z"/>
<path d="M581 1604 c0 -11 3 -14 6 -6 3 7 2 16 -1 19 -3 4 -6 -2 -5 -13z"/>
<path d="M611 1604 c0 -11 3 -14 6 -6 3 7 2 16 -1 19 -3 4 -6 -2 -5 -13z"/>
<path d="M646 1611 c-19 -7 -19 -8 0 -13 13 -3 21 0 21 8 0 8 -1 14 -1 13 -1
0 -10 -4 -20 -8z"/>
<path d="M2836 1608 c3 -5 10 -6 15 -3 13 9 11 12 -6 12 -8 0 -12 -4 -9 -9z"/>
<path d="M1552 1581 c7 -9 13 -18 15 -20 1 -2 1 5 0 16 0 11 -7 20 -14 20 -10
0 -10 -4 -1 -16z"/>
<path d="M2365 1590 c-9 -14 4 -32 17 -24 8 5 9 1 4 -12 -5 -14 -4 -16 5 -7
13 13 2 36 -13 27 -7 -5 -9 -1 -5 9 7 19 2 23 -8 7z"/>
<path d="M2870 1589 c6 -8 5 -20 -2 -33 -10 -20 -10 -20 8 -3 17 16 17 18 1
32 -9 8 -13 10 -7 4z"/>
<path d="M610 1571 c0 -6 4 -13 10 -16 6 -3 7 1 4 9 -7 18 -14 21 -14 7z"/>
<path d="M656 1563 c-6 -14 -5 -15 5 -6 7 7 10 15 7 18 -3 3 -9 -2 -12 -12z"/>
<path d="M1530 1571 c0 -6 4 -13 10 -16 6 -3 7 1 4 9 -7 18 -14 21 -14 7z"/>
<path d="M1507 1557 c-3 -8 1 -14 8 -14 7 0 11 6 8 14 -3 7 -6 13 -8 13 -2 0
-5 -6 -8 -13z"/>
<path d="M1988 1553 c7 -3 16 -2 19 1 4 3 -2 6 -13 5 -11 0 -14 -3 -6 -6z"/>
<path d="M574 1528 c-3 -5 -3 -12 0 -15 3 -4 6 -2 6 4 0 12 39 11 60 -1 12 -7
13 -6 2 5 -14 15 -60 20 -68 7z"/>
<path d="M1959 1538 c-4 -12 -5 -57 0 -53 6 6 10 55 4 55 -1 0 -3 -1 -4 -2z"/>
<path d="M2335 1529 c-4 -6 -4 -13 -1 -16 3 -4 6 -1 6 6 0 7 5 9 12 5 7 -4 8
-3 4 4 -9 15 -13 15 -21 1z"/>
<path d="M666 1507 c3 -10 9 -15 12 -12 3 3 0 11 -7 18 -10 9 -11 8 -5 -6z"/>
<path d="M1510 1509 c6 -8 5 -20 -2 -33 -10 -20 -10 -20 8 -3 17 16 17 18 1
32 -9 8 -13 10 -7 4z"/>
<path d="M2837 1507 c4 -7 -1 -8 -13 -4 -16 6 -17 5 -4 -5 9 -7 15 -26 15 -42
0 -18 6 -31 15 -33 9 -3 11 -1 5 4 -12 9 -14 62 -3 79 4 6 1 11 -7 11 -8 0
-11 -5 -8 -10z"/>
<path d="M570 1491 c0 -6 4 -13 10 -16 6 -3 7 1 4 9 -7 18 -14 21 -14 7z"/>
<path d="M2330 1491 c0 -6 4 -13 10 -16 6 -3 7 1 4 9 -7 18 -14 21 -14 7z"/>
<path d="M636 1468 c3 -5 10 -6 15 -3 13 9 11 12 -6 12 -8 0 -12 -4 -9 -9z"/>
<path d="M1550 1464 c6 -6 7 -14 3 -17 -3 -4 -2 -7 4 -7 6 0 13 8 15 18 4 12
-1 18 -13 18 -12 0 -15 -4 -9 -12z"/>
<path d="M595 1461 c-3 -5 -2 -12 3 -15 5 -3 9 1 9 9 0 17 -3 19 -12 6z"/>
<path d="M1956 1437 c3 -10 9 -15 12 -12 3 3 0 11 -7 18 -10 9 -11 8 -5 -6z"/>
<path d="M632 1416 c7 -8 15 -12 17 -11 5 6 -10 25 -20 25 -5 0 -4 -6 3 -14z"/>
<path d="M2317 1420 c7 -8 23 -15 35 -17 12 -2 19 -1 16 3 -3 3 -12 6 -20 8
-7 1 -20 5 -28 10 -12 7 -13 6 -3 -4z"/>
<path d="M587 1409 c7 -7 15 -10 18 -7 3 3 -2 9 -12 12 -14 6 -15 5 -6 -5z"/>
<path d="M2829 1385 c5 -5 7 -18 6 -27 -2 -10 1 -18 7 -18 5 0 8 6 5 13 -2 6
-1 19 4 27 5 11 2 16 -11 16 -12 0 -16 -4 -11 -11z"/>
<path d="M1932 1381 c-11 -7 -11 -9 0 -14 9 -3 15 1 15 9 0 8 -1 14 -1 14 -1
0 -7 -4 -14 -9z"/>
<path d="M2889 1373 c-13 -16 -12 -17 4 -4 16 13 21 21 13 21 -2 0 -10 -8 -17
-17z"/>
<path d="M572 1371 c-11 -7 -11 -9 0 -14 9 -3 15 1 15 9 0 8 -1 14 -1 14 -1 0
-7 -4 -14 -9z"/>
<path d="M2371 1364 c0 -11 3 -14 6 -6 3 7 2 16 -1 19 -3 4 -6 -2 -5 -13z"/>
<path d="M630 1366 c0 -2 8 -10 18 -17 15 -13 16 -12 3 4 -13 16 -21 21 -21
13z"/>
<path d="M1557 1347 c4 -7 -1 -8 -13 -3 -15 6 -17 5 -6 -5 10 -11 15 -10 28 2
13 14 13 16 0 16 -8 0 -12 -5 -9 -10z"/>
<path d="M611 1334 c0 -11 3 -14 6 -6 3 7 2 16 -1 19 -3 4 -6 -2 -5 -13z"/>
<path d="M556 1324 c-8 -20 -8 -24 2 -24 4 0 8 9 9 20 2 24 -3 26 -11 4z"/>
<path d="M2295 1331 c-3 -5 -2 -12 3 -15 5 -3 9 1 9 9 0 17 -3 19 -12 6z"/>
<path d="M2815 1320 c-4 -6 1 -7 11 -3 10 4 15 2 11 -4 -3 -5 0 -10 8 -10 11
0 12 4 4 14 -14 15 -26 17 -34 3z"/>
<path d="M626 1312 c-3 -5 1 -9 9 -9 8 0 12 4 9 9 -3 4 -7 8 -9 8 -2 0 -6 -4
-9 -8z"/>
<path d="M665 1310 c-3 -6 1 -7 9 -4 18 7 21 14 7 14 -6 0 -13 -4 -16 -10z"/>
<path d="M1496 1308 c3 -5 10 -6 15 -3 13 9 11 12 -6 12 -8 0 -12 -4 -9 -9z"/>
<path d="M1550 1310 c0 -5 5 -10 10 -10 6 0 10 5 10 10 0 6 -4 10 -10 10 -5 0
-10 -4 -10 -10z"/>
<path d="M2334 1290 c0 -13 4 -16 16 -11 8 5 23 7 33 6 9 -2 15 0 12 5 -3 5
-13 7 -23 5 -9 -1 -22 1 -27 6 -7 5 -11 1 -11 -11z"/>
<path d="M596 1292 c-3 -5 1 -9 9 -9 8 0 12 4 9 9 -3 4 -7 8 -9 8 -2 0 -6 -4
-9 -8z"/>
<path d="M1552 1277 c-8 -10 -6 -13 7 -13 11 0 17 6 14 13 -3 7 -6 13 -8 13
-1 0 -7 -6 -13 -13z"/>
<path d="M2870 1260 c6 -11 5 -22 -3 -31 -7 -7 -2 -5 9 4 17 14 23 15 27 5 3
-7 4 -3 4 9 -1 18 -4 20 -16 10 -12 -10 -14 -9 -9 4 4 9 1 16 -7 16 -10 0 -11
-5 -5 -17z"/>
<path d="M571 1254 c0 -11 3 -14 6 -6 3 7 2 16 -1 19 -3 4 -6 -2 -5 -13z"/>
<path d="M599 1265 c-1 -3 -2 -8 -3 -12 -1 -5 -4 -13 -8 -19 -4 -6 -1 -11 7
-11 8 0 11 5 8 10 -4 6 0 8 9 5 8 -4 15 -1 15 7 0 8 -7 11 -15 7 -10 -3 -13
-1 -8 6 4 7 5 12 2 12 -3 0 -7 -2 -7 -5z"/>
<path d="M1545 1233 c12 -9 13 -42 3 -59 -4 -6 -1 -11 6 -11 18 0 14 69 -4 75
-9 2 -11 0 -5 -5z"/>
<path d="M2313 1198 c-2 -18 0 -20 7 -8 12 18 13 30 2 30 -4 0 -9 -10 -9 -22z"/>
<path d="M2836 1212 c-3 -5 1 -9 9 -9 8 0 12 4 9 9 -3 4 -7 8 -9 8 -2 0 -6 -4
-9 -8z"/>
<path d="M2875 1211 c-3 -5 -2 -12 3 -15 5 -3 9 1 9 9 0 17 -3 19 -12 6z"/>
<path d="M560 1184 c-11 -12 -10 -18 3 -30 9 -8 13 -9 7 -3 -6 8 -5 19 1 31
12 22 6 24 -11 2z"/>
<path d="M630 1190 c0 -5 5 -10 10 -10 6 0 10 5 10 10 0 6 -4 10 -10 10 -5 0
-10 -4 -10 -10z"/>
<path d="M1585 1190 c-3 -6 1 -7 9 -4 18 7 21 14 7 14 -6 0 -13 -4 -16 -10z"/>
<path d="M2358 1193 c7 -3 16 -2 19 1 4 3 -2 6 -13 5 -11 0 -14 -3 -6 -6z"/>
<path d="M2338 1178 c12 -16 35 -18 48 -6 3 4 -2 5 -13 4 -10 -2 -25 2 -33 8
-13 9 -13 9 -2 -6z"/>
<path d="M2811 1174 c0 -11 3 -14 6 -6 3 7 2 16 -1 19 -3 4 -6 -2 -5 -13z"/>
<path d="M2837 1183 c-10 -21 -1 -77 13 -80 9 -3 11 -1 4 4 -5 4 -10 25 -9 46
1 37 0 44 -8 30z"/>
<path d="M1599 1178 c-7 -23 -4 -35 7 -35 9 0 11 4 4 12 -5 7 -7 15 -3 18 3 4
3 7 0 7 -4 0 -7 -1 -8 -2z"/>
<path d="M1513 1140 c1 -11 5 -20 9 -20 3 0 6 9 5 20 -1 11 -5 20 -9 20 -3 0
-6 -9 -5 -20z"/>
<path d="M2879 1138 c-6 -13 -8 -20 -4 -16 5 4 15 2 24 -5 14 -10 14 -10 3 5
-8 9 -11 22 -7 28 3 5 4 10 1 10 -3 0 -11 -10 -17 -22z"/>
<path d="M653 1137 c0 -8 6 -14 14 -14 9 0 10 4 2 14 -6 7 -12 13 -14 13 -1 0
-2 -6 -2 -13z"/>
<path d="M1558 1143 c7 -3 16 -2 19 1 4 3 -2 6 -13 5 -11 0 -14 -3 -6 -6z"/>
<path d="M2293 1135 c0 -8 5 -11 10 -8 6 4 8 0 5 -9 -4 -8 0 -15 7 -15 10 0
11 5 4 18 -12 24 -26 31 -26 14z"/>
<path d="M549 1113 c-13 -16 -12 -17 4 -4 9 7 17 15 17 17 0 8 -8 3 -21 -13z"/>
<path d="M2347 1117 c-3 -7 3 -13 14 -13 13 0 15 3 7 13 -6 7 -12 13 -13 13
-2 0 -5 -6 -8 -13z"/>
<path d="M590 1105 c5 -7 6 -15 2 -20 -4 -4 3 -2 16 4 26 14 30 23 5 14 -10
-4 -14 -2 -10 4 3 5 0 10 -8 10 -10 0 -12 -4 -5 -12z"/>
<path d="M1545 1110 c-3 -6 1 -7 9 -4 18 7 21 14 7 14 -6 0 -13 -4 -16 -10z"/>
<path d="M1588 1113 c7 -3 16 -2 19 1 4 3 -2 6 -13 5 -11 0 -14 -3 -6 -6z"/>
<path d="M1559 1098 c-4 -12 -5 -57 0 -53 6 6 10 55 4 55 -1 0 -3 -1 -4 -2z"/>
<path d="M1586 1092 c-2 -4 4 -8 14 -8 10 0 16 4 14 8 -3 4 -9 8 -14 8 -5 0
-11 -4 -14 -8z"/>
<path d="M2827 1063 c3 -7 6 -13 8 -13 1 0 7 6 13 13 8 10 6 13 -7 13 -11 0
-17 -6 -14 -13z"/>
<path d="M630 1049 c0 -5 5 -7 10 -4 6 3 10 8 10 11 0 2 -4 4 -10 4 -5 0 -10
-5 -10 -11z"/>
<path d="M1510 1048 c0 -4 4 -8 9 -8 6 0 12 4 15 8 3 5 -1 9 -9 9 -8 0 -15 -4
-15 -9z"/>
<path d="M1606 1052 c-3 -5 1 -9 9 -9 8 0 12 4 9 9 -3 4 -7 8 -9 8 -2 0 -6 -4
-9 -8z"/>
<path d="M2293 1045 c0 -7 6 -11 14 -8 7 3 13 6 13 8 0 2 -6 5 -13 8 -8 3 -14
-1 -14 -8z"/>
<path d="M588 1033 c7 -3 16 -2 19 1 4 3 -2 6 -13 5 -11 0 -14 -3 -6 -6z"/>
<path d="M2830 1030 c0 -5 5 -10 10 -10 6 0 10 5 10 10 0 6 -4 10 -10 10 -5 0
-10 -4 -10 -10z"/>
<path d="M1594 1019 c-3 -6 -2 -15 3 -20 5 -5 9 -1 9 11 0 23 -2 24 -12 9z"/>
<path d="M2261 1014 c0 -11 3 -14 6 -6 3 7 2 16 -1 19 -3 4 -6 -2 -5 -13z"/>
<path d="M640 1010 c-9 -6 -10 -10 -3 -10 6 0 15 5 18 10 8 12 4 12 -15 0z"/>
<path d="M2235 1011 c-3 -5 -2 -12 3 -15 5 -3 9 1 9 9 0 17 -3 19 -12 6z"/>
<path d="M2313 995 c0 -8 4 -15 9 -15 4 0 8 4 8 9 0 6 -4 12 -8 15 -5 3 -9 -1
-9 -9z"/>
<path d="M2837 997 c-3 -8 1 -14 8 -14 7 0 11 6 8 14 -3 7 -6 13 -8 13 -2 0
-5 -6 -8 -13z"/>
<path d="M1546 993 c6 -4 10 -20 9 -35 -1 -15 1 -25 5 -23 13 8 4 59 -10 63
-10 2 -11 1 -4 -5z"/>
<path d="M2790 995 c0 -5 5 -17 10 -25 5 -8 10 -10 10 -5 0 6 -5 17 -10 25 -5
8 -10 11 -10 5z"/>
<path d="M2880 990 c-9 -6 -10 -10 -3 -10 6 0 15 5 18 10 8 12 4 12 -15 0z"/>
<path d="M615 981 c-3 -6 -14 -8 -25 -6 -11 2 -22 0 -24 -4 -3 -4 7 -7 22 -6
15 1 30 -3 34 -9 4 -6 6 -1 5 12 -1 24 -3 26 -12 13z"/>
<path d="M1510 972 c0 -5 7 -9 15 -9 8 0 12 4 9 9 -3 4 -9 8 -15 8 -5 0 -9 -4
-9 -8z"/>
<path d="M2866 947 c3 -10 9 -15 12 -12 3 3 0 11 -7 18 -10 9 -11 8 -5 -6z"/>
<path d="M2274 930 c0 -13 4 -16 10 -10 7 7 7 13 0 20 -6 6 -10 3 -10 -10z"/>
<path d="M2302 930 c0 -14 2 -19 5 -12 2 6 2 18 0 25 -3 6 -5 1 -5 -13z"/>
<path d="M2795 941 c-3 -5 -2 -12 3 -15 5 -3 9 1 9 9 0 17 -3 19 -12 6z"/>
<path d="M591 917 c-13 -21 -12 -21 5 -5 10 10 16 20 13 22 -3 3 -11 -5 -18
-17z"/>
<path d="M621 924 c0 -11 3 -14 6 -6 3 7 2 16 -1 19 -3 4 -6 -2 -5 -13z"/>
<path d="M1496 932 c-3 -5 1 -9 9 -9 8 0 12 4 9 9 -3 4 -7 8 -9 8 -2 0 -6 -4
-9 -8z"/>
<path d="M1584 932 c4 -3 14 -7 22 -8 9 -1 13 0 10 4 -4 3 -14 7 -22 8 -9 1
-13 0 -10 -4z"/>
<path d="M540 916 c0 -2 8 -10 18 -17 15 -13 16 -12 3 4 -13 16 -21 21 -21 13z"/>
<path d="M2865 909 c-3 -4 2 -6 10 -5 21 3 28 13 10 13 -9 0 -18 -4 -20 -8z"/>
<path d="M2780 901 c0 -6 4 -13 10 -16 6 -3 7 1 4 9 -7 18 -14 21 -14 7z"/>
<path d="M1513 884 c0 -7 5 -10 11 -6 17 10 50 9 59 -3 5 -6 7 -4 5 5 -6 18
-75 22 -75 4z"/>
<path d="M2245 889 c5 -7 52 -6 59 2 3 2 -10 5 -29 5 -18 0 -32 -3 -30 -7z"/>
<path d="M563 868 c-13 -21 -12 -36 3 -42 11 -4 12 -1 5 13 -7 12 -6 22 1 29
7 7 9 12 6 12 -4 0 -10 -6 -15 -12z"/>
<path d="M2234 855 c0 -13 3 -22 7 -19 8 4 6 30 -2 38 -3 3 -5 -5 -5 -19z"/>
<path d="M2845 869 c-4 -6 -14 -8 -24 -5 -14 5 -14 5 -1 -6 9 -7 15 -26 15
-42 0 -18 6 -31 15 -33 9 -3 11 -1 5 4 -12 9 -13 62 -2 81 5 6 6 12 3 12 -3 0
-8 -5 -11 -11z"/>
<path d="M2211 854 c0 -11 3 -14 6 -6 3 7 2 16 -1 19 -3 4 -6 -2 -5 -13z"/>
<path d="M2334 856 c1 -8 5 -18 8 -22 4 -3 5 1 4 10 -1 8 -5 18 -8 22 -4 3 -5
-1 -4 -10z"/>
<path d="M1556 843 c-6 -14 -5 -15 5 -6 7 7 10 15 7 18 -3 3 -9 -2 -12 -12z"/>
<path d="M1581 844 c0 -11 3 -14 6 -6 3 7 2 16 -1 19 -3 4 -6 -2 -5 -13z"/>
<path d="M2261 844 c0 -11 3 -14 6 -6 3 7 2 16 -1 19 -3 4 -6 -2 -5 -13z"/>
<path d="M2291 814 c0 -11 3 -14 6 -6 3 7 2 16 -1 19 -3 4 -6 -2 -5 -13z"/>
<path d="M1515 810 c-5 -8 42 -7 49 1 3 3 -6 5 -20 5 -14 0 -27 -3 -29 -6z"/>
<path d="M2256 803 c-6 -14 -5 -15 5 -6 7 7 10 15 7 18 -3 3 -9 -2 -12 -12z"/>
<path d="M2313 804 c0 -7 5 -15 12 -17 6 -3 11 3 11 12 0 10 -5 18 -11 18 -7
0 -12 -6 -12 -13z"/>
<path d="M2784 800 c0 -13 4 -16 10 -10 7 7 7 13 0 20 -6 6 -10 3 -10 -10z"/>
<path d="M2875 810 c-3 -5 -1 -10 4 -10 6 0 11 5 11 10 0 6 -2 10 -4 10 -3 0
-8 -4 -11 -10z"/>
<path d="M1493 774 c1 -15 6 -20 16 -16 8 3 12 1 8 -5 -3 -5 0 -10 8 -10 11 0
12 4 4 13 -6 7 -7 19 -3 26 6 11 5 11 -8 0 -13 -10 -17 -10 -21 0 -3 7 -4 3
-4 -8z"/>
<path d="M2250 768 c0 -11 12 -10 30 2 12 7 10 9 -8 7 -12 0 -22 -5 -22 -9z"/>
<path d="M2804 773 c4 -4 16 -8 28 -10 28 -4 18 6 -12 12 -12 2 -20 1 -16 -2z"/>
<path d="M1593 740 c1 -21 10 -18 13 5 1 8 -2 15 -6 15 -5 0 -8 -9 -7 -20z"/>
<path d="M2306 746 c5 -12 4 -17 -3 -13 -5 3 -10 -1 -10 -9 0 -13 2 -13 16 0
12 13 13 18 2 28 -10 11 -11 9 -5 -6z"/>
<path d="M2890 750 c0 -5 5 -10 11 -10 5 0 7 5 4 10 -3 6 -8 10 -11 10 -2 0
-4 -4 -4 -10z"/>
<path d="M2211 734 c0 -11 3 -14 6 -6 3 7 2 16 -1 19 -3 4 -6 -2 -5 -13z"/>
<path d="M2853 725 c0 -7 6 -11 14 -8 7 3 13 6 13 8 0 2 -6 5 -13 8 -8 3 -14
-1 -14 -8z"/>
<path d="M1547 703 c3 -7 6 -13 8 -13 2 0 5 6 8 13 3 8 -1 14 -8 14 -7 0 -11
-6 -8 -14z"/>
<path d="M2247 690 c-8 -11 -17 -18 -20 -15 -4 3 -5 2 -2 -2 11 -15 34 -11 28
5 -4 9 -2 13 4 9 5 -3 10 0 10 8 0 20 -3 19 -20 -5z"/>
<path d="M2810 700 c-8 -5 -12 -12 -9 -15 4 -3 12 1 19 10 14 17 11 19 -10 5z"/>
<path d="M2190 690 c0 -5 5 -10 10 -10 6 0 10 5 10 10 0 6 -4 10 -10 10 -5 0
-10 -4 -10 -10z"/>
<path d="M2775 691 c-3 -5 -2 -12 3 -15 5 -3 9 1 9 9 0 17 -3 19 -12 6z"/>
<path d="M2280 670 c-9 -6 -10 -10 -3 -10 6 0 15 5 18 10 8 12 4 12 -15 0z"/>
<path d="M1576 661 c-3 -5 -19 -7 -36 -6 -17 1 -32 -1 -35 -4 -2 -4 13 -7 33
-6 20 1 40 -3 44 -9 4 -6 6 -1 5 12 -1 24 -3 26 -11 13z"/>
<path d="M2814 650 c0 -13 5 -16 16 -10 8 4 26 6 39 3 14 -2 22 0 18 3 -4 4
-17 8 -29 8 -13 1 -28 5 -33 8 -6 4 -11 -2 -11 -12z"/>
<path d="M2213 645 c0 -7 6 -11 14 -8 7 3 13 6 13 8 0 2 -6 5 -13 8 -8 3 -14
-1 -14 -8z"/>
<path d="M1035 639 c-4 -6 -5 -12 -2 -15 2 -3 7 2 10 11 7 17 1 20 -8 4z"/>
<path d="M1526 615 c-11 -8 -15 -15 -9 -15 6 0 16 7 23 15 16 19 11 19 -14 0z"/>
<path d="M1560 615 c0 -2 6 -8 13 -14 10 -8 14 -7 14 2 0 8 -6 14 -14 14 -7 0
-13 -1 -13 -2z"/>
<path d="M2828 602 c-3 -11 0 -19 7 -19 7 0 10 8 7 19 -2 10 -6 18 -7 18 -1 0
-5 -8 -7 -18z"/>
<path d="M1491 576 c-9 -10 -8 -15 2 -19 8 -3 13 3 13 14 0 23 0 23 -15 5z"/>
<path d="M2211 581 c-8 -5 -20 -7 -28 -4 -7 3 -13 1 -13 -5 0 -6 8 -9 18 -7 9
1 22 -1 27 -6 7 -5 11 0 11 12 0 10 0 19 -1 19 0 0 -6 -4 -14 -9z"/>
<path d="M965 570 c-2 -4 8 -6 23 -5 15 1 31 -3 35 -9 6 -7 7 -6 5 4 -4 14
-55 23 -63 10z"/>
<path d="M1534 568 c-3 -5 -3 -12 0 -15 3 -4 6 -2 6 4 0 14 44 10 66 -7 18
-13 18 -13 2 5 -19 20 -65 28 -74 13z"/>
<path d="M2800 550 c-9 -6 -10 -10 -3 -10 6 0 15 5 18 10 8 12 4 12 -15 0z"/>
<path d="M994 515 c0 -19 3 -32 5 -29 8 7 9 54 2 59 -4 2 -7 -12 -7 -30z"/>
<path d="M2235 541 c-3 -5 -2 -12 3 -15 5 -3 9 1 9 9 0 17 -3 19 -12 6z"/>
<path d="M1496 532 c-3 -5 1 -9 9 -9 8 0 12 4 9 9 -3 4 -7 8 -9 8 -2 0 -6 -4
-9 -8z"/>
<path d="M1555 512 c1 -15 -2 -32 -6 -37 -5 -7 -1 -11 11 -11 13 0 16 4 11 16
-5 8 -7 23 -6 32 2 10 0 20 -4 23 -4 2 -7 -8 -6 -23z"/>
<path d="M2187 517 c-3 -8 1 -14 8 -14 7 0 11 6 8 14 -3 7 -6 13 -8 13 -2 0
-5 -6 -8 -13z"/>
<path d="M2790 526 c0 -2 7 -9 15 -16 13 -11 14 -10 9 4 -5 14 -24 23 -24 12z"/>
<path d="M948 513 c7 -3 16 -2 19 1 4 3 -2 6 -13 5 -11 0 -14 -3 -6 -6z"/>
<path d="M1585 510 c-3 -6 1 -7 9 -4 18 7 21 14 7 14 -6 0 -13 -4 -16 -10z"/>
<path d="M1493 495 c0 -7 6 -11 14 -8 7 3 13 6 13 8 0 2 -6 5 -13 8 -8 3 -14
-1 -14 -8z"/>
<path d="M2235 499 c-4 -6 -5 -12 -2 -15 2 -3 7 2 10 11 7 17 1 20 -8 4z"/>
<path d="M945 489 c-3 -4 2 -6 10 -5 21 3 28 13 10 13 -9 0 -18 -4 -20 -8z"/>
<path d="M2256 492 c-3 -5 1 -9 9 -9 8 0 12 4 9 9 -3 4 -7 8 -9 8 -2 0 -6 -4
-9 -8z"/>
<path d="M2830 460 c5 -10 6 -21 2 -26 -4 -5 0 -3 10 4 13 10 17 10 21 0 3 -7
4 -3 4 9 -1 18 -4 20 -16 10 -12 -10 -14 -9 -9 4 4 9 1 16 -7 16 -10 0 -11 -5
-5 -17z"/>
<path d="M959 468 c-6 -21 -5 -37 2 -32 5 3 7 9 4 14 -3 4 1 11 7 13 10 4 10
6 1 6 -7 1 -13 0 -14 -1z"/>
<path d="M2245 453 c-10 -22 -14 -93 -5 -88 4 2 6 19 5 37 -1 18 2 39 8 46 5
7 8 15 5 18 -3 3 -9 -3 -13 -13z"/>
<path d="M2136 443 c-6 -14 -5 -15 5 -6 7 7 10 15 7 18 -3 3 -9 -2 -12 -12z"/>
<path d="M989 425 c4 -5 7 -22 6 -38 -1 -15 0 -25 3 -22 3 3 12 -1 21 -7 9 -7
7 -2 -4 11 -11 13 -20 24 -19 25 22 39 22 42 4 42 -12 0 -16 -4 -11 -11z"/>
<path d="M1508 422 c3 -9 1 -13 -5 -9 -5 3 -10 0 -10 -8 0 -17 14 -10 26 14 7
13 6 18 -4 18 -7 0 -11 -7 -7 -15z"/>
<path d="M1547 423 c3 -7 6 -13 8 -13 1 0 7 6 13 13 8 10 6 13 -7 13 -11 0
-17 -6 -14 -13z"/>
<path d="M2158 423 c7 -3 16 -2 19 1 4 3 -2 6 -13 5 -11 0 -14 -3 -6 -6z"/>
<path d="M2795 410 c-5 -8 62 -7 69 1 3 2 -11 5 -30 5 -20 0 -37 -3 -39 -6z"/>
<path d="M1550 390 c0 -5 5 -10 10 -10 6 0 10 5 10 10 0 6 -4 10 -10 10 -5 0
-10 -4 -10 -10z"/>
<path d="M2188 393 c7 -3 16 -2 19 1 4 3 -2 6 -13 5 -11 0 -14 -3 -6 -6z"/>
<path d="M1056 363 c-6 -14 -5 -15 5 -6 7 7 10 15 7 18 -3 3 -9 -2 -12 -12z"/>
<path d="M1550 366 c0 -2 8 -10 18 -17 15 -13 16 -12 3 4 -13 16 -21 21 -21
13z"/>
<path d="M2115 351 c-3 -5 0 -13 6 -17 7 -4 9 -3 5 4 -3 5 0 13 6 15 9 4 10 6
1 6 -6 1 -14 -3 -18 -8z"/>
<path d="M988 343 c7 -3 16 -2 19 1 4 3 -2 6 -13 5 -11 0 -14 -3 -6 -6z"/>
<path d="M2828 343 c7 -3 16 -2 19 1 4 3 -2 6 -13 5 -11 0 -14 -3 -6 -6z"/>
<path d="M930 331 c0 -6 4 -13 10 -16 6 -3 7 1 4 9 -7 18 -14 21 -14 7z"/>
<path d="M1034 301 c1 -22 4 -43 7 -46 3 -3 5 13 4 35 -1 22 -4 43 -7 46 -3 3
-5 -13 -4 -35z"/>
<path d="M1510 331 c0 -6 4 -13 10 -16 6 -3 7 1 4 9 -7 18 -14 21 -14 7z"/>
<path d="M2156 331 c3 -3 21 -6 39 -6 19 -1 32 1 29 4 -3 3 -21 6 -39 6 -19 1
-32 -1 -29 -4z"/>
<path d="M2873 319 c-2 -23 3 -25 10 -4 4 8 3 16 -1 19 -4 3 -9 -4 -9 -15z"/>
<path d="M965 309 c-4 -6 -5 -12 -2 -15 2 -3 7 2 10 11 7 17 1 20 -8 4z"/>
<path d="M1589 307 c6 -8 7 -18 3 -22 -4 -5 -1 -5 6 -1 10 6 10 11 1 22 -6 8
-14 14 -16 14 -3 0 0 -6 6 -13z"/>
<path d="M2797 307 c4 -6 0 -8 -10 -4 -11 4 -14 2 -10 -9 5 -13 8 -13 24 2 23
21 23 21 4 21 -8 0 -11 -5 -8 -10z"/>
<path d="M1494 299 c-3 -6 -2 -15 3 -20 5 -5 9 -1 9 11 0 23 -2 24 -12 9z"/>
<path d="M2098 298 c-7 -17 15 -19 29 -3 4 4 3 5 -4 2 -6 -4 -13 -2 -15 5 -3
8 -6 6 -10 -4z"/>
<path d="M2193 295 c0 -8 4 -15 9 -15 4 0 8 4 8 9 0 6 -4 12 -8 15 -5 3 -9 -1
-9 -9z"/>
<path d="M900 290 c-8 -5 -10 -10 -5 -10 6 0 17 5 25 10 8 5 11 10 5 10 -5 0
-17 -5 -25 -10z"/>
<path d="M2837 283 c-10 -9 -9 -23 1 -23 5 0 9 7 9 15 0 17 -1 18 -10 8z"/>
<path d="M947 262 c4 -9 2 -13 -4 -9 -5 3 -10 -1 -10 -10 0 -13 4 -12 17 5 10
12 19 20 21 19 2 -1 3 0 1 2 -1 3 -9 6 -17 7 -9 1 -11 -4 -8 -14z"/>
<path d="M1558 263 c7 -3 16 -2 19 1 4 3 -2 6 -13 5 -11 0 -14 -3 -6 -6z"/>
<path d="M2093 260 c2 -9 15 -15 33 -15 16 0 35 -6 42 -15 8 -8 11 -9 7 -2 -4
7 -1 20 7 29 11 14 11 15 -2 8 -20 -13 -73 -13 -83 0 -5 6 -7 4 -4 -5z"/>
<path d="M1513 240 c-1 -11 2 -20 5 -20 4 0 8 9 9 20 1 11 -2 20 -5 20 -4 0
-8 -9 -9 -20z"/>
<path d="M2827 237 c-3 -7 3 -13 14 -13 13 0 15 3 7 13 -6 7 -12 13 -13 13 -2
0 -5 -6 -8 -13z"/>
<path d="M987 223 c3 -7 6 -13 8 -13 2 0 5 6 8 13 3 8 -1 14 -8 14 -7 0 -11
-6 -8 -14z"/>
<path d="M1558 233 c7 -3 16 -2 19 1 4 3 -2 6 -13 5 -11 0 -14 -3 -6 -6z"/>
<path d="M2753 219 c-2 -23 3 -25 10 -4 4 8 3 16 -1 19 -4 3 -9 -4 -9 -15z"/>
<path d="M455 221 c-3 -5 -2 -12 3 -15 5 -3 9 1 9 9 0 17 -3 19 -12 6z"/>
<path d="M661 214 c0 -11 3 -14 6 -6 3 7 2 16 -1 19 -3 4 -6 -2 -5 -13z"/>
<path d="M773 216 c0 -8 5 -12 10 -9 7 4 8 -1 3 -13 -6 -15 -5 -17 5 -6 11 10
10 15 -2 28 -14 13 -16 13 -16 0z"/>
<path d="M856 217 c3 -10 9 -15 12 -12 3 3 0 11 -7 18 -10 9 -11 8 -5 -6z"/>
<path d="M891 221 c-8 -5 -9 -11 -3 -15 5 -3 12 1 16 9 6 17 6 18 -13 6z"/>
<path d="M1015 221 c-3 -5 -2 -12 3 -15 5 -3 9 1 9 9 0 17 -3 19 -12 6z"/>
<path d="M2129 213 c-13 -16 -12 -17 4 -4 16 13 21 21 13 21 -2 0 -10 -8 -17
-17z"/>
<path d="M2731 214 c0 -11 3 -14 6 -6 3 7 2 16 -1 19 -3 4 -6 -2 -5 -13z"/>
<path d="M493 205 c0 -8 4 -12 9 -9 5 3 6 10 3 15 -9 13 -12 11 -12 -6z"/>
<path d="M570 210 c0 -5 5 -10 10 -10 6 0 10 5 10 10 0 6 -4 10 -10 10 -5 0
-10 -4 -10 -10z"/>
<path d="M710 205 c5 -7 7 -15 3 -18 -3 -4 -1 -7 5 -7 6 0 10 8 9 18 0 10 -7
19 -14 19 -9 0 -10 -4 -3 -12z"/>
<path d="M1460 210 c17 -10 20 -28 9 -50 -5 -11 -2 -16 11 -16 10 0 16 5 12
11 -4 5 -7 17 -7 25 0 21 -14 40 -28 40 -7 0 -6 -4 3 -10z"/>
<path d="M1579 203 c-12 -16 -12 -17 2 -6 9 7 20 9 24 5 5 -4 5 -1 1 6 -9 16
-11 15 -27 -5z"/>
<path d="M1950 212 c0 -4 9 -8 20 -9 11 -1 20 2 20 5 0 4 -9 8 -20 9 -11 1
-20 -2 -20 -5z"/>
<path d="M2206 212 c-3 -5 1 -9 9 -9 8 0 12 4 9 9 -3 4 -7 8 -9 8 -2 0 -6 -4
-9 -8z"/>
<path d="M2590 210 c0 -5 8 -7 18 -5 9 1 22 -1 28 -6 6 -5 11 -4 11 4 0 7 -13
13 -29 14 -15 0 -28 -3 -28 -7z"/>
<path d="M517 197 c-3 -8 1 -14 8 -14 7 0 11 6 8 14 -6 16 -10 16 -16 0z"/>
<path d="M2000 201 c0 -6 4 -13 10 -16 6 -3 7 1 4 9 -7 18 -14 21 -14 7z"/>
<path d="M628 182 c3 -9 1 -13 -5 -9 -5 3 -10 0 -10 -8 0 -9 5 -11 11 -6 6 4
23 7 38 6 15 -1 25 2 22 6 -2 4 -14 6 -25 4 -14 -3 -19 0 -16 9 3 7 -1 13 -8
13 -8 0 -11 -7 -7 -15z"/>
<path d="M994 184 c4 -9 2 -22 -4 -29 -7 -8 -6 -12 3 -12 8 0 13 12 13 29 0
15 -4 28 -9 28 -5 0 -6 -7 -3 -16z"/>
<path d="M1343 186 c-3 -6 -3 -8 2 -4 4 4 15 -2 25 -14 13 -17 17 -18 17 -5 0
9 -5 13 -10 10 -6 -4 -8 0 -5 9 7 17 -19 21 -29 4z"/>
<path d="M2070 193 c0 -5 5 -15 10 -23 7 -12 9 -10 7 8 -1 19 -17 33 -17 15z"/>
<path d="M2802 188 c-16 -16 -54 -17 -65 -3 -5 6 -7 4 -5 -5 3 -9 18 -15 41
-15 20 -1 35 1 32 3 -3 3 0 11 6 19 14 17 7 17 -9 1z"/>
<path d="M452 181 c-11 -6 -10 -10 0 -19 11 -8 14 -7 14 9 0 10 0 19 -1 19 0
0 -6 -4 -13 -9z"/>
<path d="M851 181 c-8 -5 -23 -8 -33 -6 -10 2 -16 0 -13 -5 3 -4 13 -7 23 -5
9 1 22 -1 27 -6 7 -5 11 0 11 12 0 10 0 19 -1 19 0 0 -6 -4 -14 -9z"/>
<path d="M894 169 c0 -13 3 -15 13 -7 7 6 13 12 13 13 0 2 -6 5 -13 8 -7 3
-13 -3 -13 -14z"/>
<path d="M1532 181 c-11 -7 -11 -9 0 -14 9 -3 15 1 15 9 0 8 -1 14 -1 14 -1 0
-7 -4 -14 -9z"/>
<path d="M2118 183 c7 -3 16 -2 19 1 4 3 -2 6 -13 5 -11 0 -14 -3 -6 -6z"/>
<path d="M399 163 c-12 -16 -12 -17 2 -6 9 7 19 10 22 6 4 -3 7 -1 7 5 0 17
-16 15 -31 -5z"/>
<path d="M930 170 c0 -5 5 -10 10 -10 6 0 10 5 10 10 0 6 -4 10 -10 10 -5 0
-10 -4 -10 -10z"/>
<path d="M1947 169 c7 -7 15 -10 18 -7 3 3 -2 9 -12 12 -14 6 -15 5 -6 -5z"/>
<path d="M2639 163 c-13 -16 -12 -17 4 -4 16 13 21 21 13 21 -2 0 -10 -8 -17
-17z"/>
<path d="M2821 164 c0 -11 3 -14 6 -6 3 7 2 16 -1 19 -3 4 -6 -2 -5 -13z"/>
<path d="M1435 161 c-3 -5 -2 -12 3 -15 5 -3 9 1 9 9 0 17 -3 19 -12 6z"/>
<path d="M551 138 c8 -15 13 -17 25 -7 8 6 14 14 14 16 0 3 -8 -1 -17 -8 -14
-12 -16 -12 -11 2 4 9 1 16 -7 16 -11 0 -11 -5 -4 -19z"/>
<path d="M757 143 c3 -7 6 -13 8 -13 2 0 5 6 8 13 3 8 -1 14 -8 14 -7 0 -11
-6 -8 -14z"/>
<path d="M2028 138 c6 -23 8 -23 14 0 3 11 0 19 -7 19 -7 0 -10 -8 -7 -19z"/>
<path d="M2105 150 c-3 -6 1 -7 9 -4 18 7 21 14 7 14 -6 0 -13 -4 -16 -10z"/>
<path d="M2148 153 c7 -3 16 -2 19 1 4 3 -2 6 -13 5 -11 0 -14 -3 -6 -6z"/>
<path d="M2666 150 c5 -8 9 -18 9 -22 0 -3 3 -9 7 -13 3 -4 5 0 4 9 -1 9 -8
22 -16 29 -10 10 -11 9 -4 -3z"/>
<path d="M674 130 c0 -13 4 -16 10 -10 7 7 7 13 0 20 -6 6 -10 3 -10 -10z"/>
<path d="M1413 137 c0 -8 6 -14 14 -14 9 0 10 4 2 14 -6 7 -12 13 -14 13 -1 0
-2 -6 -2 -13z"/>
<path d="M2175 141 c-3 -5 -2 -12 3 -15 5 -3 9 1 9 9 0 17 -3 19 -12 6z"/>
<path d="M2701 134 c0 -11 3 -14 6 -6 3 7 2 16 -1 19 -3 4 -6 -2 -5 -13z"/>
<path d="M787 129 c7 -7 15 -10 18 -7 3 3 -2 9 -12 12 -14 6 -15 5 -6 -5z"/>
<path d="M956 123 c-6 -14 -5 -15 5 -6 7 7 10 15 7 18 -3 3 -9 -2 -12 -12z"/>
<path d="M1506 132 c-3 -5 1 -9 9 -9 8 0 12 4 9 9 -3 4 -7 8 -9 8 -2 0 -6 -4
-9 -8z"/>
<path d="M1545 130 c-3 -6 1 -7 9 -4 18 7 21 14 7 14 -6 0 -13 -4 -16 -10z"/>
<path d="M2114 128 c-4 -7 -4 -10 1 -6 4 4 15 2 24 -5 14 -11 14 -10 2 6 -16
20 -18 21 -27 5z"/>
<path d="M2795 130 c-3 -5 -1 -10 4 -10 6 0 11 5 11 10 0 6 -2 10 -4 10 -3 0
-8 -4 -11 -10z"/>
<path d="M2856 123 c-6 -14 -5 -15 5 -6 7 7 10 15 7 18 -3 3 -9 -2 -12 -12z"/>
</g>
</svg>
